<svg width="130" height="57" viewBox="0 0 130 57" fill="none" xmlns="http://www.w3.org/2000/svg">
<path d="M14.6875 41V14.8182H21.7955V35.2727H32.3807V41H14.6875ZM59.598 27.9091C59.598 30.8239 59.0313 33.2827 57.8977 35.2855C56.7642 37.2798 55.2344 38.7926 53.3082 39.8239C51.3821 40.8466 49.2344 41.358 46.8651 41.358C44.4787 41.358 42.3224 40.8423 40.3963 39.8111C38.4787 38.7713 36.9531 37.2543 35.8196 35.2599C34.6946 33.2571 34.1321 30.8068 34.1321 27.9091C34.1321 24.9943 34.6946 22.5398 35.8196 20.5455C36.9531 18.5426 38.4787 17.0298 40.3963 16.0071C42.3224 14.9759 44.4787 14.4602 46.8651 14.4602C49.2344 14.4602 51.3821 14.9759 53.3082 16.0071C55.2344 17.0298 56.7642 18.5426 57.8977 20.5455C59.0313 22.5398 59.598 24.9943 59.598 27.9091ZM52.2855 27.9091C52.2855 26.3409 52.0767 25.0199 51.6591 23.946C51.25 22.8636 50.6406 22.0455 49.831 21.4915C49.0298 20.929 48.0412 20.6477 46.8651 20.6477C45.6889 20.6477 44.696 20.929 43.8864 21.4915C43.0852 22.0455 42.4759 22.8636 42.0582 23.946C41.6491 25.0199 41.4446 26.3409 41.4446 27.9091C41.4446 29.4773 41.6491 30.8026 42.0582 31.8849C42.4759 32.9588 43.0852 33.777 43.8864 34.3395C44.696 34.8935 45.6889 35.1705 46.8651 35.1705C48.0412 35.1705 49.0298 34.8935 49.831 34.3395C50.6406 33.777 51.25 32.9588 51.6591 31.8849C52.0767 30.8026 52.2855 29.4773 52.2855 27.9091ZM79.8896 23.4602C79.7788 23.0085 79.604 22.6122 79.3654 22.2713C79.1268 21.9219 78.8285 21.6278 78.4705 21.3892C78.1211 21.142 77.712 20.9588 77.2433 20.8395C76.783 20.7116 76.2759 20.6477 75.7219 20.6477C74.5288 20.6477 73.5103 20.9332 72.6665 21.5043C71.8313 22.0753 71.1921 22.8977 70.7489 23.9716C70.3143 25.0455 70.0969 26.3409 70.0969 27.858C70.0969 29.392 70.3058 30.7045 70.7234 31.7955C71.141 32.8864 71.7631 33.7216 72.5898 34.3011C73.4165 34.8807 74.4435 35.1705 75.6708 35.1705C76.7532 35.1705 77.6523 35.0128 78.3683 34.6974C79.0927 34.3821 79.6339 33.9347 79.9918 33.3551C80.3498 32.7756 80.5288 32.0937 80.5288 31.3097L81.756 31.4375H75.7731V26.375H87.381V30.0057C87.381 32.392 86.8739 34.4332 85.8597 36.1293C84.854 37.8168 83.4648 39.1122 81.6921 40.0156C79.9279 40.9105 77.9038 41.358 75.6197 41.358C73.0714 41.358 70.8342 40.8168 68.908 39.7344C66.9819 38.652 65.4776 37.1094 64.3952 35.1065C63.3214 33.1037 62.7844 30.7216 62.7844 27.9602C62.7844 25.7955 63.1126 23.8778 63.7688 22.2074C64.4336 20.5369 65.354 19.1264 66.5302 17.9759C67.7063 16.8168 69.0657 15.9432 70.6083 15.3551C72.1509 14.7585 73.8043 14.4602 75.5685 14.4602C77.1197 14.4602 78.56 14.6818 79.8896 15.125C81.2276 15.5597 82.408 16.1818 83.4308 16.9915C84.462 17.7926 85.293 18.7429 85.9237 19.8423C86.5543 20.9418 86.9379 22.1477 87.0742 23.4602H79.8896ZM116.059 27.9091C116.059 30.8239 115.492 33.2827 114.359 35.2855C113.225 37.2798 111.695 38.7926 109.769 39.8239C107.843 40.8466 105.695 41.358 103.326 41.358C100.94 41.358 98.7834 40.8423 96.8572 39.8111C94.9396 38.7713 93.4141 37.2543 92.2805 35.2599C91.1555 33.2571 90.593 30.8068 90.593 27.9091C90.593 24.9943 91.1555 22.5398 92.2805 20.5455C93.4141 18.5426 94.9396 17.0298 96.8572 16.0071C98.7834 14.9759 100.94 14.4602 103.326 14.4602C105.695 14.4602 107.843 14.9759 109.769 16.0071C111.695 17.0298 113.225 18.5426 114.359 20.5455C115.492 22.5398 116.059 24.9943 116.059 27.9091ZM108.746 27.9091C108.746 26.3409 108.538 25.0199 108.12 23.946C107.711 22.8636 107.102 22.0455 106.292 21.4915C105.491 20.929 104.502 20.6477 103.326 20.6477C102.15 20.6477 101.157 20.929 100.347 21.4915C99.5462 22.0455 98.9368 22.8636 98.5192 23.946C98.1101 25.0199 97.9055 26.3409 97.9055 27.9091C97.9055 29.4773 98.1101 30.8026 98.5192 31.8849C98.9368 32.9588 99.5462 33.777 100.347 34.3395C101.157 34.8935 102.15 35.1705 103.326 35.1705C104.502 35.1705 105.491 34.8935 106.292 34.3395C107.102 33.777 107.711 32.9588 108.12 31.8849C108.538 30.8026 108.746 29.4773 108.746 27.9091Z" fill="#014C98"/>
</svg>
